<?xml version="1.0" encoding="UTF-8"?>
<svg version="1.1" xmlns="http://www.w3.org/2000/svg" width="500" height="500">
<path d="M0 0 C165 0 330 0 500 0 C500 165 500 330 500 500 C335 500 170 500 0 500 C0 335 0 170 0 0 Z " fill="#1A214A" transform="translate(0,0)"/>
<path d="M0 0 C0.83902566 -0.00085442 1.67805131 -0.00170885 2.54250199 -0.00258917 C5.33996663 -0.00422977 8.13737064 0.00125407 10.93482971 0.00672913 C12.94568887 0.00701133 14.95654813 0.00685261 16.96740723 0.00628662 C22.41724117 0.00599994 27.86705307 0.01187577 33.3168819 0.01886058 C39.01570699 0.02511566 44.7145326 0.02569962 50.4133606 0.02688599 C61.20083599 0.02999294 71.98830123 0.03819778 82.77577215 0.04823548 C95.05864985 0.05941633 107.34152804 0.06491204 119.62440956 0.06993091 C144.88747534 0.08038091 170.15053141 0.09816972 195.41358948 0.12025452 C195.08358948 5.40025452 194.75358948 10.68025452 194.41358948 16.12025452 C199.69358948 16.12025452 204.97358948 16.12025452 210.41358948 16.12025452 C210.93349582 38.21627418 203.82073744 55.09468495 188.78858948 71.30775452 C176.00042305 83.62663043 158.35445827 90.28869174 140.72999573 90.21791077 C140.02962692 90.21649582 139.32925812 90.21508087 138.60766602 90.21362305 C136.39709482 90.20807928 134.18662944 90.19553778 131.97608948 90.18275452 C130.46632533 90.17773223 128.95655957 90.17317061 127.4467926 90.16908264 C123.76902454 90.15812839 120.09131736 90.14090342 116.41358948 90.12025452 C116.42050292 91.65971237 116.42050292 91.65971237 116.42755604 93.23027039 C116.53877711 118.25474197 116.62082391 143.27918133 116.67265034 168.30384827 C116.69838229 180.4058259 116.73343685 192.50763981 116.79078674 204.60951233 C116.84077525 215.16306995 116.87291685 225.71650893 116.88403195 236.27018166 C116.89052458 241.85326966 116.90567907 247.43601841 116.94223976 253.01899719 C116.97644362 258.28526983 116.9865936 263.55106686 116.97912788 268.81744003 C116.9804916 270.73936431 116.99027745 272.66130624 117.00961685 274.5831337 C117.22811956 297.43794156 110.57187143 315.55542464 94.66358948 332.24525452 C84.19151953 342.44880985 68.44020036 352.12025452 53.41358948 352.12025452 C53.41358948 345.85025452 53.41358948 339.58025452 53.41358948 333.12025452 C51.24796448 333.75962952 49.08233948 334.39900452 46.85108948 335.05775452 C37.91497711 337.69603531 30.9377608 338.12025452 21.41358948 338.12025452 C21.41358948 261.89025452 21.41358948 185.66025452 21.41358948 107.12025452 C0.95358948 107.12025452 -19.50641052 107.12025452 -40.58641052 107.12025452 C-41.75059014 101.29935641 -41.22369884 96.99746897 -40.58641052 91.12025452 C-45.86641052 91.12025452 -51.14641052 91.12025452 -56.58641052 91.12025452 C-56.58641052 85.84025452 -56.58641052 80.56025452 -56.58641052 75.12025452 C-62.19641052 75.12025452 -67.80641052 75.12025452 -73.58641052 75.12025452 C-71.83807752 53.26609197 -66.95300766 34.78980749 -50.58641052 19.12025452 C-35.78634538 6.63333925 -19.46196642 -0.07330268 0 0 Z " fill="#4ADEE1" transform="translate(188.58641052246094,66.87974548339844)"/>
<path d="M0 0 C5.61 0 11.22 0 17 0 C17.96002296 18.2404362 11.36663534 36.0422375 -0.4375 49.8515625 C-13.30848916 63.43344931 -30.84085699 72.34305216 -49.717453 73.16110229 C-53.85391405 73.22001372 -57.9886847 73.17535019 -62.125 73.125 C-63.57291044 73.11494507 -65.02082768 73.10582368 -66.46875 73.09765625 C-69.97931037 73.07585344 -73.48961028 73.04146381 -77 73 C-76.99539104 74.02022971 -76.99078207 75.04045942 -76.98603344 76.09160519 C-76.87478388 100.97455879 -76.79275215 125.85747994 -76.74093914 150.74063015 C-76.71521348 162.77419845 -76.68017112 174.80760196 -76.62280273 186.84106445 C-76.57279478 197.33566802 -76.54066807 207.83015218 -76.52955753 218.3248716 C-76.52306816 223.87613441 -76.50793482 229.42705573 -76.47134972 234.97820854 C-76.43711494 240.2157578 -76.42700195 245.45282874 -76.43446159 250.69047928 C-76.43309923 252.60069577 -76.42333209 254.51093024 -76.40397263 256.42104912 C-76.20317549 277.27658587 -80.93407737 296.23467818 -95.67700195 311.75195312 C-110.23959583 326.50411923 -128.49047135 336.29244921 -149.5546875 337.09765625 C-150.32039063 337.08605469 -151.08609375 337.07445312 -151.875 337.0625 C-153.23625 337.041875 -154.5975 337.02125 -156 337 C-156 331.39 -156 325.78 -156 320 C-158.31 320.33 -160.62 320.66 -163 321 C-166.0104501 321.11084131 -168.98553198 321.04637643 -172 321 C-172 315.39 -172 309.78 -172 304 C-160.5 300 -160.5 300 -156 300 C-156 306.27 -156 312.54 -156 319 C-138.46035517 315.08338028 -124.48394859 308.0414455 -112 295 C-111.38769531 294.37222656 -110.77539062 293.74445313 -110.14453125 293.09765625 C-102.12732545 284.33849824 -98.30664655 274.19780703 -95 263 C-94.81804109 262.43960651 -94.63608217 261.87921303 -94.44860935 261.30183792 C-93.77276572 257.8340491 -93.84622743 254.3698148 -93.84178162 250.85028076 C-93.83684364 250.02198549 -93.83190566 249.19369021 -93.82681805 248.34029508 C-93.81144384 245.5611753 -93.80308261 242.78207863 -93.79467773 240.00292969 C-93.78509915 238.01221513 -93.77508908 236.02150262 -93.76467896 234.03079224 C-93.73762169 228.62212369 -93.71661654 223.21344642 -93.69667697 217.80474758 C-93.67482252 212.15393415 -93.64743118 206.50314766 -93.62062073 200.85235596 C-93.57068655 190.14979859 -93.52575039 179.44722627 -93.48259836 168.74463964 C-93.4332322 156.56096403 -93.37831176 144.37731545 -93.32291877 132.19366598 C-93.20908758 107.12913587 -93.10225099 82.06457984 -93 57 C-92.08822998 56.98018066 -91.17645996 56.96036133 -90.23706055 56.93994141 C-86.80193006 56.86109306 -83.36717377 56.77438237 -79.93237305 56.68261719 C-78.45556071 56.64471314 -76.97866808 56.60979887 -75.50170898 56.578125 C-63.83077838 56.32483929 -52.69209715 55.75294879 -41.9375 50.8125 C-41.25486084 50.50425293 -40.57222168 50.19600586 -39.86889648 49.87841797 C-20.40687698 40.82299695 -9.5779373 25.59002366 -2 6 C-1.34 4.02 -0.68 2.04 0 0 Z " fill="#275771" transform="translate(398,100)"/>
<path d="M0 0 C0.33 1.32 0.66 2.64 1 4 C6.28 4 11.56 4 17 4 C17.51990635 26.09601966 10.40714796 42.97443044 -4.625 59.1875 C-17.41316642 71.50637591 -35.05913121 78.16843722 -52.68359375 78.09765625 C-53.38396255 78.0962413 -54.08433136 78.09482635 -54.80592346 78.09336853 C-57.01649466 78.08782477 -59.22696004 78.07528326 -61.4375 78.0625 C-62.94726415 78.05747771 -64.45702991 78.05291609 -65.96679688 78.04882812 C-69.64456493 78.03787387 -73.32227212 78.0206489 -77 78 C-76.99539104 79.02630524 -76.99078207 80.05261047 -76.98603344 81.11001587 C-76.87481236 106.13448746 -76.79276557 131.15892681 -76.74093914 156.18359375 C-76.71520718 168.28557138 -76.68015263 180.38738529 -76.62280273 192.48925781 C-76.57281422 203.04281543 -76.54067263 213.59625441 -76.52955753 224.14992714 C-76.5230649 229.73301514 -76.50791041 235.31576389 -76.47134972 240.89874268 C-76.43714585 246.16501531 -76.42699588 251.43081234 -76.43446159 256.69718552 C-76.43309787 258.61910979 -76.42331203 260.54105173 -76.40397263 262.46287918 C-76.18546992 285.31768705 -82.84171805 303.43517013 -98.75 320.125 C-109.22206995 330.32855534 -124.97338912 340 -140 340 C-140.495 330.1 -140.495 330.1 -141 320 C-138.875625 318.989375 -136.75125 317.97875 -134.5625 316.9375 C-128.43610885 313.93428357 -123.18538676 310.45864695 -118 306 C-116.5459375 304.85724609 -116.5459375 304.85724609 -115.0625 303.69140625 C-111.87147573 301.02553799 -109.38865176 297.95104139 -107 294.5625 C-106.57138672 293.95559326 -106.14277344 293.34868652 -105.70117188 292.72338867 C-94.87868587 276.88346431 -93.70129897 260.96241352 -93.68115234 242.3918457 C-93.6718415 240.41980077 -93.66167113 238.44775973 -93.65071106 236.47572327 C-93.62352733 231.15010646 -93.60829627 225.82451595 -93.59528303 220.4988482 C-93.5796014 214.92280089 -93.55282732 209.34680685 -93.5272522 203.77079773 C-93.48055328 193.22430912 -93.44376625 182.67781039 -93.41057932 172.13127154 C-93.37229501 160.11912006 -93.32290144 148.1070222 -93.27259517 136.09491599 C-93.16940754 111.39665045 -93.08010446 86.69835043 -93 62 C-92.15928955 61.98018066 -91.3185791 61.96036133 -90.45239258 61.93994141 C-87.26695624 61.86081371 -84.08183211 61.77410221 -80.89672852 61.68261719 C-79.53059556 61.6448513 -78.1643807 61.60991832 -76.7980957 61.578125 C-64.86764914 61.29730537 -52.76819149 60.98247258 -41.8125 55.8125 C-41.13888428 55.50425293 -40.46526855 55.19600586 -39.77124023 54.87841797 C-21.77651762 46.39331204 -10.74129716 32.62597393 -3.22265625 14.4609375 C-1.54395514 9.70908708 -0.59138974 4.99622363 0 0 Z " fill="#399CAB" transform="translate(382,79)"/>
<path d="M0 0 C0.33 0 0.66 0 1 0 C1 1.65 1 3.3 1 5 C32.02 5 63.04 5 95 5 C95 15.89 95 26.78 95 38 C74.54 38 54.08 38 33 38 C31.83582038 32.17910189 32.36271169 27.87721445 33 22 C27.72 22 22.44 22 17 22 C17 16.72 17 11.44 17 6 C11.39 6 5.78 6 0 6 C0 4.02 0 2.04 0 0 Z " fill="#3FA2B9" transform="translate(115,136)"/>
<path d="M0 0 C25.74 0 51.48 0 78 0 C78 5.61 78 11.22 78 17 C57.54 17 37.08 17 16 17 C14.83582038 11.17910189 15.36271169 6.87721445 16 1 C10.72 1 5.44 1 0 1 C0 0.67 0 0.34 0 0 Z " fill="#31618D" transform="translate(132,157)"/>
<path d="M0 0 C0.33 0 0.66 0 1 0 C1 1.65 1 3.3 1 5 C1.98355469 4.98839844 2.96710938 4.97679687 3.98046875 4.96484375 C15.68120348 4.87344292 27.31830727 5.36053295 39 6 C37.35 10.95 35.7 15.9 34 21 C28.39 21 22.78 21 17 21 C17 16.05 17 11.1 17 6 C11.39 6 5.78 6 0 6 C0 4.02 0 2.04 0 0 Z " fill="#3A85A8" transform="translate(115,136)"/>
<path d="M0 0 C0.33 1.32 0.66 2.64 1 4 C6.28 4 11.56 4 17 4 C17.07723467 10.79665108 17.03334237 17.28327457 16 24 C15.67 22.68 15.34 21.36 15 20 C8.73 20 2.46 20 -4 20 C-3.28724036 15.0106825 -2.5302189 11.59065671 -1 7 C-0.62468554 4.67305036 -0.28082798 2.34023315 0 0 Z " fill="#327D92" transform="translate(382,79)"/>
<path d="M0 0 C0 6.27 0 12.54 0 19 C0.66 19.33 1.32 19.66 2 20 C-4.06696699 20.77040851 -9.88514973 21.09706112 -16 21 C-16 15.39 -16 9.78 -16 4 C-4.5 0 -4.5 0 0 0 Z " fill="#2F7C8C" transform="translate(242,400)"/>
</svg>
